<?xml version="1.0" encoding="UTF-8" standalone="no"?>
<svg
   width="32"
   height="32"
   viewBox="0 0 32 32"
   fill="none"
   version="1.1"
   id="svg1"
   sodipodi:docname="favicon.svg"
   inkscape:version="1.4 (86a8ad7, 2024-10-11)"
   xmlns:inkscape="http://www.inkscape.org/namespaces/inkscape"
   xmlns:sodipodi="http://sodipodi.sourceforge.net/DTD/sodipodi-0.dtd"
   xmlns="http://www.w3.org/2000/svg"
   xmlns:svg="http://www.w3.org/2000/svg">
  <defs
     id="defs1" />
  <sodipodi:namedview
     id="namedview1"
     pagecolor="#ffffff"
     bordercolor="#000000"
     borderopacity="0.25"
     inkscape:showpageshadow="2"
     inkscape:pageopacity="0.0"
     inkscape:pagecheckerboard="0"
     inkscape:deskcolor="#d1d1d1"
     inkscape:zoom="56.71875"
     inkscape:cx="16"
     inkscape:cy="14.589532"
     inkscape:window-width="3840"
     inkscape:window-height="2054"
     inkscape:window-x="-11"
     inkscape:window-y="1524"
     inkscape:window-maximized="1"
     inkscape:current-layer="svg1" />
  <rect
     width="32"
     height="32"
     rx="6"
     fill="#000000"
     id="rect1" />
  <path
     style="font-weight:600;font-size:12px;font-family:'IBM Plex Mono';-inkscape-font-specification:'IBM Plex Mono Semi-Bold';letter-spacing:-1;dominant-baseline:middle;text-anchor:middle;fill:#ffffff"
     d="m 7.4939909,19.732 h -5.904 v -1.464 l 2.688,-2.292 q 0.672,-0.576 0.996,-1.044 0.324,-0.48 0.324,-1.02 v -0.12 q 0,-0.6 -0.336,-0.912 -0.336,-0.312 -0.936,-0.312 -0.66,0 -1.008,0.36 -0.348,0.36 -0.504,0.888 l -1.368,-0.516 q 0.132,-0.408 0.372,-0.78 0.252,-0.384 0.612,-0.672 0.372,-0.288 0.876,-0.456 0.504,-0.18 1.152,-0.18 0.672,0 1.188,0.192 0.528,0.18 0.888,0.516 0.36,0.324 0.54,0.78 0.192,0.456 0.192,0.996 0,0.516 -0.168,0.948 -0.156,0.432 -0.444,0.828 -0.288,0.384 -0.684,0.744 -0.384,0.36 -0.84,0.72 l -1.824,1.476 h 4.188 z m 3.2000041,0.144 q -0.8159994,0 -1.4159994,-0.288 -0.5999999,-0.3 -0.996,-0.852 -0.3840001,-0.552 -0.5760001,-1.356 -0.18,-0.804 -0.18,-1.836 0,-1.02 0.18,-1.824 0.192,-0.816 0.5760001,-1.368 0.3960001,-0.552 0.996,-0.84 0.6,-0.3 1.4159994,-0.3 1.632,0 2.4,1.14 0.768,1.14 0.768,3.192 0,2.052 -0.768,3.192 -0.768,1.14 -2.4,1.14 z m 0,-1.26 q 0.864,0 1.212,-0.612 0.36,-0.624 0.36,-1.716 V 14.8 q 0,-1.092 -0.36,-1.704 -0.348,-0.624 -1.212,-0.624 -0.8639994,0 -1.2239988,0.624 Q 9.121996,13.708 9.121996,14.8 v 1.488 q 0,1.092 0.3480002,1.716 0.3599999,0.612 1.2239988,0.612 z m 0,-2.364 q -0.42,0 -0.588,-0.168 -0.1559988,-0.168 -0.1559988,-0.408 v -0.264 q 0,-0.24 0.1559988,-0.408 0.168,-0.168 0.588,-0.168 0.42,0 0.576,0.168 0.168,0.168 0.168,0.408 v 0.264 q 0,0.24 -0.168,0.408 -0.156,0.168 -0.576,0.168 z m 4.940004,5.136 V 10.612 h 3.732 v 1.056 h -2.484 v 8.664 h 2.484 v 1.056 z m 14.92001,-10.776 v 10.776 h -3.732 v -1.056 h 2.484 v -8.664 h -2.484 v -1.056 z"
     id="text1"
     aria-label="20[ ]" />
</svg>
